<?xml version="1.0" standalone="no"?>
<!DOCTYPE svg PUBLIC "-//W3C//DTD SVG 20010904//EN"
 "http://www.w3.org/TR/2001/REC-SVG-20010904/DTD/svg10.dtd">
<svg version="1.0" xmlns="http://www.w3.org/2000/svg"
 width="640.000000pt" height="640.000000pt" viewBox="0 0 640.000000 640.000000"
 preserveAspectRatio="xMidYMid meet">
<metadata>
Created by potrace 1.11, written by Peter Selinger 2001-2013
</metadata>
<g transform="translate(0.000000,640.000000) scale(0.100000,-0.100000)"
fill="#000000" stroke="none">
<path d="M2258 4453 c7 -3 16 -2 19 1 4 3 -2 6 -13 5 -11 0 -14 -3 -6 -6z"/>
<path d="M2131 4412 c-29 -23 -44 -27 -98 -27 -50 0 -61 -2 -48 -11 13 -9 7
-14 -31 -24 -48 -14 -109 -64 -98 -82 4 -6 1 -14 -6 -18 -10 -6 -5 -16 20 -37
l34 -28 -39 -6 c-26 -4 -56 0 -93 13 -31 11 -66 17 -81 13 -15 -3 -55 3 -91
14 -45 14 -68 17 -77 10 -6 -6 -17 -8 -22 -4 -16 10 -104 34 -96 27 3 -4 21
-12 38 -19 25 -9 27 -12 11 -12 -12 -1 -41 6 -65 14 -44 16 -69 14 -69 -5 0
-5 7 -10 15 -10 8 0 15 -4 15 -9 0 -16 95 -42 149 -40 70 3 84 -13 43 -49 -32
-29 -143 -59 -165 -45 -6 3 -49 10 -96 14 -74 7 -91 5 -128 -12 -41 -18 -157
-122 -148 -131 3 -3 -6 -11 -20 -18 -14 -7 -25 -17 -25 -22 0 -5 -18 -25 -40
-45 -22 -21 -40 -43 -40 -51 0 -7 -4 -11 -8 -8 -5 3 -15 -5 -23 -17 -8 -12
-26 -33 -41 -48 -29 -28 -37 -46 -15 -33 6 4 3 -2 -7 -14 -11 -12 -22 -20 -25
-17 -3 4 1 10 9 15 10 6 11 10 3 10 -7 0 -17 -9 -22 -19 -8 -15 -7 -20 7 -24
9 -3 53 -19 97 -35 241 -90 321 -117 432 -147 113 -31 123 -32 144 -17 20 14
22 14 16 0 -4 -11 1 -18 16 -21 34 -8 190 -56 212 -66 11 -4 43 -15 71 -23
l50 -15 61 48 c65 51 107 101 95 114 -4 5 -1 5 7 0 9 -5 12 -3 9 6 -5 14 42
76 70 93 9 5 28 11 43 12 21 3 27 0 23 -10 -3 -8 -12 -17 -20 -20 -7 -3 -11
-11 -8 -19 3 -8 -2 -20 -11 -27 -10 -8 -15 -9 -15 -1 0 6 5 11 10 11 6 0 10 6
10 12 0 7 -27 -16 -60 -52 -33 -36 -83 -89 -111 -118 -41 -43 -48 -56 -38 -68
6 -8 16 -14 21 -14 12 0 213 183 285 260 32 34 82 85 112 114 110 104 121 116
121 137 0 22 0 22 -20 4 -16 -15 -20 -15 -15 -3 5 13 -2 14 -45 10 -72 -7
-136 8 -405 97 -132 43 -242 77 -244 75 -2 -2 4 -13 14 -24 18 -19 18 -22 2
-56 -19 -39 -66 -64 -119 -64 l-33 0 30 14 c17 7 43 17 59 22 42 13 48 38 8
32 -18 -2 -30 0 -29 6 3 15 -94 29 -121 17 -12 -6 -36 -11 -52 -11 -23 0 -30
-5 -30 -20 0 -15 7 -20 24 -20 27 0 44 -16 24 -22 -7 -3 -25 0 -40 6 -23 9
-30 7 -42 -9 -8 -11 -18 -17 -22 -12 -4 4 1 13 11 21 17 12 17 14 -1 45 -22
37 -15 54 35 88 34 23 131 40 153 27 7 -4 5 2 -5 13 -17 20 -17 22 8 49 l26
29 -3 -25 c-3 -24 0 -25 56 -28 32 -2 68 -9 80 -16 11 -8 53 -19 91 -26 39 -7
122 -28 185 -47 63 -19 140 -41 170 -49 30 -8 96 -28 145 -43 50 -16 126 -39
170 -51 43 -13 102 -33 130 -46 27 -13 70 -26 95 -30 42 -6 561 -173 605 -194
11 -6 106 -39 210 -74 105 -36 228 -79 275 -96 47 -17 117 -43 155 -57 39 -13
89 -33 112 -44 23 -10 45 -19 48 -19 4 0 43 -16 86 -35 44 -19 85 -35 92 -35
7 0 29 16 49 35 36 34 71 45 83 25 3 -6 -1 -13 -9 -16 -9 -3 -16 -11 -16 -17
0 -6 -7 -19 -17 -29 -9 -10 -14 -21 -10 -24 3 -3 35 25 71 62 l66 68 -33 14
c-17 7 -45 15 -62 16 -65 6 -62 5 -45 17 12 8 9 10 -14 6 -15 -3 -40 2 -55 9
-14 8 -22 14 -17 14 6 0 1 7 -10 15 -18 14 -18 14 11 14 17 0 41 -6 55 -13 17
-10 30 -11 42 -5 12 6 18 6 18 0 0 -17 165 -79 178 -67 3 3 10 2 16 -3 13 -10
100 -44 234 -91 l93 -33 32 39 c18 21 31 45 29 53 -2 9 2 12 11 8 20 -7 30 18
13 32 -7 6 -29 18 -50 26 -56 24 -57 39 -2 130 14 24 10 21 -21 -12 l-38 -42
-33 25 c-37 30 -66 28 -70 -4 -3 -16 -10 -22 -28 -22 -13 0 -24 5 -24 10 0 6
5 10 10 10 6 0 10 9 10 20 0 11 -5 20 -10 20 -15 0 -70 42 -70 53 0 5 13 6 29
2 20 -4 30 -2 34 9 4 10 -5 17 -31 23 -23 5 -41 17 -47 30 -5 12 -17 24 -27
26 -10 3 -18 12 -18 20 0 12 8 14 35 10 27 -4 35 -2 35 10 0 20 -81 60 -94 47
-6 -6 -18 -10 -27 -10 -10 0 -19 -6 -22 -12 -3 -10 -9 -10 -26 0 -29 17 -40
15 -17 -3 48 -36 -22 -25 -127 20 -14 6 -20 2 -24 -14 -3 -11 -10 -21 -15 -21
-6 0 -7 8 -4 17 8 19 -9 33 -43 33 -19 0 -21 3 -11 15 10 12 7 15 -14 21 -14
3 -31 13 -38 21 -11 14 -10 15 10 9 34 -11 26 9 -10 27 -21 10 -37 12 -42 6
-6 -5 -15 -9 -20 -9 -6 0 -4 4 4 10 11 7 9 11 -12 19 -14 5 -29 15 -33 20 -3
6 -17 11 -30 11 -30 0 -39 14 -26 38 7 13 6 19 -2 20 -7 1 -32 6 -57 12 -120
29 -130 30 -130 8 0 -4 12 -8 28 -8 15 -1 41 -7 57 -14 25 -11 27 -15 13 -21
-10 -4 -23 -5 -30 -3 -7 3 -19 -2 -27 -10 -8 -7 -25 -12 -37 -9 -13 2 -25 -1
-27 -7 -3 -8 -8 -8 -18 0 -16 13 -69 24 -69 15 0 -3 9 -12 21 -19 12 -7 18
-16 15 -19 -3 -3 -11 -1 -19 5 -9 8 -24 6 -55 -8 -53 -24 -151 -16 -242 18
-18 7 -32 9 -87 11 -28 0 -43 6 -43 14 0 15 -61 47 -90 47 -11 0 -20 5 -20 10
0 6 -7 10 -15 10 -8 0 -15 4 -15 9 0 5 -10 11 -22 13 -15 2 -23 10 -23 22 0
25 -25 33 -37 12 -5 -9 -18 -16 -29 -16 -11 0 -38 -17 -61 -37 -22 -21 -51
-48 -65 -60 -13 -13 -22 -24 -19 -24 4 -1 11 -3 16 -4 6 -1 14 -3 20 -4 6 -1
6 -10 0 -26 -9 -23 -6 -26 25 -39 19 -8 35 -18 35 -21 0 -8 3 -8 -230 65 -102
32 -219 68 -260 80 -144 42 -390 122 -390 126 0 6 43 -4 130 -31 196 -61 208
-64 176 -40 -11 8 -17 17 -14 21 8 8 128 -28 128 -38 0 -4 13 -8 29 -8 15 0
40 -10 55 -21 33 -26 135 -37 115 -13 -6 8 -17 14 -24 14 -7 0 -18 7 -25 15
-11 13 -8 15 19 15 44 0 31 16 -20 24 -49 8 -61 14 -54 27 4 5 14 5 26 -1 15
-9 19 -7 19 5 0 8 5 15 11 15 5 0 7 -4 4 -10 -4 -6 7 -10 24 -10 17 0 31 5 31
10 0 6 -9 10 -20 10 -11 0 -20 5 -20 10 0 6 -19 10 -43 10 -47 0 -87 22 -87
48 1 24 19 54 60 99 47 50 61 76 23 40 -33 -31 -127 -67 -173 -67 -37 0 -203
31 -210 39 -13 15 -52 30 -123 46 -42 10 -77 22 -77 26 0 3 -17 9 -37 13 -43
7 -71 22 -61 32 14 14 123 32 228 38 35 2 66 8 67 13 2 6 16 8 31 6 26 -4 26
-4 8 11 -25 20 -60 20 -76 1 -11 -13 -15 -13 -29 -2 -28 24 -83 19 -120 -11z
m-176 -232 c3 -5 2 -10 -4 -10 -5 0 -13 5 -16 10 -3 6 -2 10 4 10 5 0 13 -4
16 -10z m80 -17 c20 -15 19 -15 -5 -9 -14 3 -31 6 -37 6 -7 0 -13 5 -13 10 0
15 33 11 55 -7z m70 -25 c6 -4 2 -8 -7 -8 -10 0 -18 7 -18 17 0 9 3 12 8 7 4
-5 12 -12 17 -16z m-513 -20 c-7 -7 -12 -8 -12 -2 0 14 12 26 19 19 2 -3 -1
-11 -7 -17z m545 -34 c-3 -3 -12 -4 -19 -1 -8 3 -5 6 6 6 11 1 17 -2 13 -5z
m150 -10 c-3 -3 -12 -4 -19 -1 -8 3 -5 6 6 6 11 1 17 -2 13 -5z m88 -24 c3 -5
-1 -10 -10 -10 -9 0 -13 5 -10 10 3 6 8 10 10 10 2 0 7 -4 10 -10z m809 -76
c23 -9 20 -23 -4 -17 -11 3 -20 9 -20 14 0 11 3 11 24 3z m823 -38 c0 -8 -6
-12 -15 -9 -11 5 -11 7 0 14 7 5 13 9 14 9 0 0 1 -6 1 -14z m-700 -12 c-3 -3
-12 -4 -19 -1 -8 3 -5 6 6 6 11 1 17 -2 13 -5z m-1757 -14 c0 -5 -4 -10 -10
-10 -5 0 -10 5 -10 10 0 6 5 10 10 10 6 0 10 -4 10 -10z m1520 -60 c12 -8 11
-10 -7 -10 -13 0 -23 5 -23 10 0 13 11 13 30 0z m-1665 -27 c9 -12 27 -18 54
-18 23 0 41 -2 41 -5 0 -5 8 -6 88 -12 35 -2 42 -6 42 -24 0 -18 9 -23 59 -34
55 -11 61 -11 88 9 16 12 37 35 47 52 20 34 36 38 36 7 0 -26 -80 -104 -114
-110 -24 -5 -210 24 -311 48 -33 8 -65 15 -72 16 -7 1 -10 5 -8 9 3 3 -2 12
-10 19 -22 18 -18 39 8 50 32 13 38 12 52 -7z m1780 -14 c16 -16 -30 -10 -51
6 -18 14 -17 15 11 9 17 -4 34 -11 40 -15z m-65 -20 c30 -12 93 -32 140 -46
97 -28 154 -52 146 -61 -3 -3 -16 -1 -29 5 -12 6 -38 15 -57 21 -153 46 -270
87 -270 94 0 12 9 10 70 -13z m95 11 c3 -5 1 -10 -4 -10 -6 0 -11 5 -11 10 0
6 2 10 4 10 3 0 8 -4 11 -10z m100 -30 c18 -8 18 -9 -5 -9 -14 0 -32 4 -40 9
-12 8 -12 10 5 9 11 0 29 -4 40 -9z m-1096 -88 c-39 -37 -75 -74 -80 -82 -8
-13 -9 -13 -7 1 5 26 129 158 144 152 8 -3 -13 -29 -57 -71z m1687 28 c8 0 14
-7 14 -15 0 -10 11 -15 33 -16 17 0 26 -3 20 -6 -20 -8 -15 -23 7 -23 11 0 20
5 20 12 0 6 7 5 18 -5 10 -9 33 -22 51 -28 40 -14 34 -21 -24 -26 -35 -3 -45
0 -45 12 0 17 -10 18 -92 15 -46 -1 -63 3 -93 23 l-36 25 28 21 c19 15 37 20
57 16 16 -3 35 -5 42 -5z m714 -6 c0 -2 -7 -4 -15 -4 -8 0 -15 4 -15 10 0 5 7
7 15 4 8 -4 15 -8 15 -10z m-1100 -20 c2 -3 -2 -9 -10 -14 -8 -5 -11 -13 -6
-17 5 -4 11 -2 13 5 6 17 59 15 88 -4 13 -8 31 -14 41 -12 9 2 19 -3 22 -11 4
-11 -1 -12 -19 -7 -13 4 -49 10 -79 13 -30 2 -77 11 -103 20 -48 15 -48 16
-25 28 21 12 65 11 78 -1z m865 -4 c18 -8 18 -9 2 -9 -10 -1 -15 -5 -12 -11 4
-6 -7 -10 -24 -10 -20 0 -31 5 -31 14 0 9 7 12 23 9 18 -4 19 -3 7 6 -13 10
-13 11 0 10 8 0 24 -4 35 -9z m130 -40 c-3 -5 -13 -10 -21 -10 -8 0 -14 -4
-14 -9 0 -19 22 -22 46 -7 18 13 29 14 44 6 26 -14 26 -24 0 -17 -21 5 -19 -2
9 -35 9 -10 21 -18 28 -18 16 0 17 22 1 38 -9 9 -8 12 4 12 27 0 48 -11 48
-26 0 -8 -4 -14 -9 -14 -5 0 -12 -11 -15 -25 -4 -16 -13 -25 -26 -25 -11 0
-20 4 -20 8 0 5 -8 18 -18 29 -20 24 -106 38 -98 16 8 -19 -3 -16 -41 10 -43
29 -44 52 -3 44 25 -6 30 -3 30 13 0 16 7 20 31 20 17 0 28 -4 24 -10z m-214
-23 c-13 -13 -26 -3 -16 12 3 6 11 8 17 5 6 -4 6 -10 -1 -17z m-523 -19 c55
-26 63 -32 47 -39 -17 -6 -17 -8 -2 -8 9 -1 17 -5 17 -9 0 -15 60 0 73 19 9
12 18 15 27 9 22 -14 33 0 13 16 -17 13 -17 13 3 14 31 0 74 -23 74 -41 0 -19
20 -29 55 -29 12 0 25 -7 29 -15 3 -8 14 -15 24 -15 11 0 25 -7 32 -15 7 -8
18 -15 26 -15 7 0 12 -9 11 -20 -1 -11 -5 -20 -10 -20 -5 0 -3 -8 4 -17 12
-14 12 -16 -1 -11 -8 3 -58 19 -110 36 -189 62 -345 117 -365 129 -17 11 -18
14 -5 23 12 8 11 10 -7 10 -23 0 -29 10 -16 23 9 10 9 10 81 -25z m608 -15
c-3 -3 -13 -3 -22 1 -16 6 -15 8 2 21 16 12 19 12 22 -1 2 -9 1 -18 -2 -21z
m-229 7 c16 -12 34 -18 45 -15 12 4 18 1 18 -9 0 -12 -11 -14 -57 -9 -54 5
-113 26 -113 39 0 4 10 4 23 1 12 -4 29 -2 37 3 20 13 18 13 47 -10z m18 -70
c-3 -5 -14 -10 -23 -10 -15 0 -15 2 -2 10 20 13 33 13 25 0z m325 -10 c0 -5
-4 -10 -9 -10 -6 0 -13 5 -16 10 -3 6 1 10 9 10 9 0 16 -4 16 -10z m218 -42
c-6 -18 -28 -21 -28 -4 0 9 7 16 16 16 9 0 14 -5 12 -12z m-391 -48 c3 -10 2
-11 -4 -4 -4 6 -15 14 -23 17 -11 5 -9 6 4 4 11 -1 21 -9 23 -17z"/>
<path d="M3868 3658 c9 -9 15 -9 24 0 9 9 7 12 -12 12 -19 0 -21 -3 -12 -12z"/>
<path d="M2490 4416 c0 -9 6 -16 13 -17 6 0 2 -4 -10 -9 -13 -5 -23 -15 -23
-22 0 -9 3 -9 12 0 7 7 27 12 46 12 26 0 33 -4 29 -15 -4 -8 -2 -17 3 -20 6
-4 10 -1 10 4 0 6 9 11 20 11 34 0 21 44 -15 52 -16 4 -42 10 -57 14 -22 5
-28 3 -28 -10z"/>
<path d="M2048 4403 c7 -3 16 -2 19 1 4 3 -2 6 -13 5 -11 0 -14 -3 -6 -6z"/>
<path d="M1920 4369 c0 -5 5 -7 10 -4 6 3 10 8 10 11 0 2 -4 4 -10 4 -5 0 -10
-5 -10 -11z"/>
<path d="M2720 4363 c0 -11 54 -22 67 -14 12 6 5 10 -25 13 -23 2 -42 2 -42 1z"/>
<path d="M1868 4353 c7 -3 16 -2 19 1 4 3 -2 6 -13 5 -11 0 -14 -3 -6 -6z"/>
<path d="M2637 4346 c-4 -10 -1 -13 8 -9 8 3 12 9 9 14 -7 12 -11 11 -17 -5z"/>
<path d="M1778 4340 c-47 -14 -51 -21 -23 -36 35 -18 45 -18 45 0 0 8 10 22
22 30 21 15 21 16 3 15 -11 0 -32 -4 -47 -9z"/>
<path d="M1845 4330 c-3 -5 1 -10 10 -10 9 0 13 5 10 10 -3 6 -8 10 -10 10 -2
0 -7 -4 -10 -10z"/>
<path d="M3270 4126 c-7 -9 -10 -23 -6 -31 3 -9 0 -15 -9 -15 -8 0 -15 -6 -15
-14 0 -8 -6 -16 -12 -18 -7 -3 3 -5 22 -5 19 0 44 6 55 13 11 8 41 14 67 14
36 0 48 4 48 15 0 8 -9 15 -20 15 -11 0 -20 4 -20 9 0 10 -13 15 -66 26 -21 4
-35 1 -44 -9z"/>
<path d="M3180 4085 c0 -9 9 -15 23 -14 12 0 16 3 9 6 -6 2 -10 9 -6 14 3 5
-2 9 -10 9 -9 0 -16 -7 -16 -15z"/>
<path d="M3440 4080 c0 -5 5 -10 11 -10 5 0 7 5 4 10 -3 6 -8 10 -11 10 -2 0
-4 -4 -4 -10z"/>
<path d="M3556 4064 c-9 -24 -7 -29 5 -17 14 14 39 6 39 -12 0 -19 27 -26 34
-9 3 8 19 14 41 14 29 0 35 -4 35 -21 0 -15 -5 -19 -16 -15 -8 3 -12 2 -9 -4
3 -6 16 -10 27 -10 12 0 30 -7 40 -16 15 -14 18 -15 23 -2 3 8 2 26 -4 40 -8
20 -20 27 -70 38 -34 7 -64 17 -67 21 -9 16 -71 10 -78 -7z"/>
<path d="M3018 4055 c-15 -8 -42 -17 -62 -19 -19 -3 -55 -14 -80 -25 -25 -12
-52 -21 -60 -21 -9 0 -16 -5 -16 -11 0 -7 17 -9 48 -6 58 6 84 16 76 29 -4 6
2 8 15 3 13 -4 41 3 77 19 31 14 63 26 70 26 8 0 14 5 14 10 0 15 -51 11 -82
-5z"/>
<path d="M3800 3996 c0 -8 5 -18 12 -22 7 -5 9 -2 5 9 -3 9 -1 18 6 21 7 2 4
5 -5 5 -10 1 -18 -5 -18 -13z"/>
<path d="M2498 3988 c5 -5 16 -8 23 -6 8 3 3 7 -10 11 -17 4 -21 3 -13 -5z"/>
<path d="M2808 3943 c7 -3 16 -2 19 1 4 3 -2 6 -13 5 -11 0 -14 -3 -6 -6z"/>
<path d="M2920 3930 c20 -13 40 -13 40 0 0 6 -12 10 -27 10 -22 0 -25 -2 -13
-10z"/>
<path d="M2346 3638 c-196 -202 -272 -283 -309 -329 l-38 -47 28 -6 c16 -4 46
-15 68 -25 41 -19 72 -32 90 -37 6 -2 59 -21 118 -43 60 -23 114 -41 120 -41
7 0 24 -6 39 -14 15 -8 75 -26 133 -40 58 -15 113 -30 123 -35 9 -5 55 -21
101 -35 86 -27 100 -26 124 12 4 6 14 12 21 12 14 0 103 86 118 115 9 15 28
21 28 8 0 -5 -18 -28 -40 -52 -22 -25 -37 -47 -35 -50 9 -8 55 42 75 83 11 23
29 51 39 63 23 27 108 76 120 69 11 -7 24 22 23 49 -1 18 0 18 5 2 4 -16 11
-12 41 24 21 24 37 45 38 49 4 26 18 60 25 60 10 0 1 -28 -15 -49 -9 -12 -8
-12 12 -2 19 10 26 21 24 41 0 3 8 7 19 7 10 1 19 -1 19 -4 0 -3 -30 -36 -66
-73 -80 -82 -97 -107 -88 -121 4 -8 -1 -9 -15 -4 -35 11 -94 -36 -162 -130
-30 -41 -34 -52 -24 -62 10 -10 14 -9 19 3 3 9 1 12 -4 9 -41 -26 36 69 106
130 60 52 85 54 38 3 l-29 -32 38 32 c21 18 43 32 50 32 7 0 -1 -12 -18 -26
-16 -15 -66 -62 -111 -105 -44 -43 -83 -76 -86 -73 -3 3 -9 -7 -12 -21 -4 -14
-20 -34 -37 -44 -25 -16 -27 -19 -13 -25 19 -7 74 38 74 61 0 8 4 11 10 8 5
-3 24 8 42 25 98 92 128 123 128 132 0 9 138 157 188 202 13 12 29 30 34 41 9
17 7 16 -16 -4 -14 -13 -36 -25 -48 -26 -12 -1 -24 -7 -26 -15 -3 -7 0 -10 7
-6 18 12 13 -1 -13 -29 -13 -14 -30 -23 -38 -20 -8 3 -21 -2 -28 -12 -12 -15
-12 -16 0 -5 23 20 35 14 15 -8 -14 -15 -21 -17 -32 -8 -11 9 -10 15 8 35 13
13 30 21 38 18 19 -5 49 11 38 21 -3 4 -13 1 -22 -6 -8 -7 -15 -9 -15 -4 0 5
29 35 65 67 66 59 87 94 38 62 -16 -11 -28 -14 -30 -8 -3 7 -20 9 -42 6 -41
-6 -103 11 -428 118 -100 32 -185 59 -189 59 -4 0 2 -9 14 -20 26 -24 27 -35
8 -72 -13 -25 -13 -29 2 -37 25 -14 9 -23 -22 -12 -17 7 -35 7 -52 1 -14 -6
-37 -10 -52 -10 -25 0 -25 1 -9 17 9 9 29 18 44 19 48 3 53 4 53 12 0 27 -170
49 -217 29 -26 -11 -31 -27 -9 -27 8 0 16 -5 18 -11 3 -9 9 -9 25 -1 25 14 35
6 21 -17 -7 -12 -19 -16 -34 -13 -33 6 -30 -12 3 -27 66 -30 221 -76 293 -86
49 -7 74 8 81 49 5 27 25 31 32 7 6 -24 -16 -70 -46 -93 -30 -24 -108 -23
-188 1 -35 11 -95 24 -133 31 -76 12 -99 22 -134 53 l-22 21 22 23 c12 13 27
23 35 23 16 0 17 16 2 26 -7 4 -16 -1 -21 -10 -5 -9 -16 -16 -24 -16 -14 0
-14 2 0 16 18 18 20 30 6 39 -13 8 -13 51 0 74 5 10 29 26 52 36 l43 17 -54
14 c-56 15 -75 24 -51 24 16 0 78 -19 102 -31 25 -13 88 -12 68 1 -13 8 -101
39 -189 65 -20 6 -37 -7 -125 -97z m634 -106 c0 -10 -4 -11 -12 -5 -7 6 -34
16 -60 24 -70 20 -59 30 12 11 37 -10 60 -22 60 -30z m55 -12 c3 -5 2 -10 -4
-10 -5 0 -13 5 -16 10 -3 6 -2 10 4 10 5 0 13 -4 16 -10z m-90 -70 c3 -5 1
-10 -4 -10 -6 0 -11 5 -11 10 0 6 2 10 4 10 3 0 8 -4 11 -10z m375 -111 c0 -5
-4 -9 -10 -9 -5 0 -10 7 -10 16 0 8 5 12 10 9 6 -3 10 -10 10 -16z m-380 -43
c0 -2 -7 -7 -16 -10 -8 -3 -12 -2 -9 4 6 10 25 14 25 6z m340 -26 c0 -5 -5
-10 -11 -10 -5 0 -7 5 -4 10 3 6 8 10 11 10 2 0 4 -4 4 -10z m60 -41 c0 -6 -4
-7 -10 -4 -5 3 -10 11 -10 16 0 6 5 7 10 4 6 -3 10 -11 10 -16z m-210 -58 c0
-6 -4 -13 -10 -16 -5 -3 -10 1 -10 9 0 9 5 16 10 16 6 0 10 -4 10 -9z"/>
<path d="M4766 3695 c-15 -11 -16 -15 -5 -15 8 0 20 5 27 12 9 9 12 9 12 0 0
-7 7 -12 16 -12 14 0 14 3 4 15 -15 19 -29 19 -54 0z"/>
<path d="M418 3663 c-21 -9 -40 -23 -43 -32 -3 -9 -19 -31 -35 -50 -17 -19
-29 -40 -26 -47 3 -7 -4 -20 -15 -30 -15 -13 -17 -19 -7 -26 10 -6 10 -10 -2
-18 -8 -5 -11 -10 -7 -10 4 0 -2 -10 -13 -22 -18 -19 -22 -20 -30 -8 -7 10 -8
4 -5 -20 18 -145 25 -282 30 -520 3 -151 9 -315 15 -365 5 -49 9 -108 8 -130
-5 -96 2 -220 12 -205 8 12 10 11 10 -7 0 -15 6 -23 18 -23 14 0 15 -2 2 -10
-12 -8 -11 -10 8 -10 12 0 22 -4 22 -8 0 -5 19 -13 43 -19 57 -15 111 -36 119
-48 5 -6 15 -5 29 3 20 13 21 12 15 -3 -5 -13 -2 -16 9 -11 9 3 34 -5 55 -19
22 -14 46 -25 55 -25 8 0 15 -5 15 -11 0 -8 5 -7 15 1 9 7 18 10 22 6 3 -3 0
-6 -8 -6 -8 -1 1 -7 20 -15 42 -19 54 -19 21 0 -14 8 -20 14 -14 15 5 0 19 -7
30 -15 10 -8 27 -15 36 -15 9 0 18 -4 20 -8 4 -11 96 -44 126 -46 12 0 22 -5
22 -10 0 -4 7 -5 16 -2 10 4 13 2 8 -6 -5 -7 -2 -9 9 -5 9 3 17 3 19 -1 2 -4
40 -22 85 -39 46 -17 80 -26 76 -20 -4 6 -1 7 8 1 8 -4 27 -7 44 -6 25 1 27 0
10 -7 -18 -9 -17 -10 7 -10 15 -1 30 -6 33 -12 9 -13 51 -30 90 -35 34 -5 74
-23 93 -41 7 -7 23 -13 36 -13 31 0 146 -40 146 -51 0 -4 7 -6 15 -3 14 6 13
8 -2 21 -11 9 -8 9 7 -1 14 -9 50 -28 80 -41 30 -14 63 -30 73 -36 10 -5 28
-7 39 -3 11 3 18 2 15 -3 -3 -5 25 -17 61 -27 37 -11 84 -27 106 -37 21 -10
42 -16 47 -14 4 3 9 2 11 -3 6 -14 225 -83 244 -76 15 5 16 4 5 -4 -12 -9 -9
-12 15 -17 16 -3 40 -9 54 -12 14 -4 28 -6 33 -5 4 1 7 -2 7 -7 0 -5 17 -15
38 -22 20 -6 42 -14 47 -18 6 -3 15 -7 20 -8 43 -11 223 -78 220 -83 -2 -3 12
-5 31 -5 19 1 34 -1 34 -5 0 -4 15 -11 33 -17 17 -6 55 -20 82 -30 28 -11 56
-18 64 -15 8 3 11 0 8 -5 -3 -5 15 -15 41 -22 92 -26 237 -76 240 -83 2 -5 12
-8 23 -8 10 0 44 -11 76 -25 31 -14 63 -23 70 -20 8 2 12 1 9 -4 -3 -5 11 -11
32 -15 20 -3 55 -14 76 -25 21 -11 43 -18 49 -14 6 4 7 1 2 -7 -6 -10 -4 -12
8 -7 9 3 19 2 22 -4 4 -5 11 -7 16 -4 5 4 9 2 9 -3 0 -6 7 -13 16 -16 10 -4
13 -2 8 7 -4 6 2 4 13 -5 11 -10 29 -18 40 -18 11 0 23 -3 27 -7 17 -17 186
-55 186 -41 0 5 9 4 20 -2 16 -9 19 -8 13 7 -5 12 -2 15 9 10 10 -3 23 3 35
16 l18 22 -25 -19 c-22 -18 -22 -17 3 10 15 16 35 38 43 49 9 11 13 13 9 5 -4
-8 2 -5 13 8 11 12 23 28 25 35 4 9 8 8 16 -3 9 -13 11 -13 11 2 0 9 9 20 21
23 21 7 51 62 55 100 4 48 17 331 20 445 11 485 17 618 26 676 19 126 -14 151
-336 260 -133 45 -279 95 -326 111 -47 17 -125 43 -175 58 -102 33 -187 68
-225 95 -28 20 -372 142 -660 234 -41 13 -100 33 -130 45 -30 12 -61 19 -68
16 -7 -3 -11 -1 -8 4 3 4 -14 13 -37 20 -23 7 -85 27 -137 45 -52 18 -124 42
-160 53 -36 11 -175 57 -310 101 -323 105 -360 116 -391 114 -23 -2 -514 154
-654 207 -78 30 -239 81 -250 80 -5 0 -27 -8 -47 -16z m1039 -849 c2 -7 -7
-14 -21 -18 -14 -3 -30 -15 -36 -25 -9 -17 -3 -21 48 -39 31 -11 66 -23 77
-28 15 -6 10 5 -18 39 -24 30 -32 44 -20 40 24 -9 83 -75 77 -85 -3 -4 2 -8
10 -8 8 0 18 -10 21 -22 4 -13 19 -36 34 -53 51 -57 52 -59 38 -94 -8 -18 -56
-78 -108 -134 -52 -56 -112 -121 -135 -146 -32 -35 -45 -42 -62 -37 -12 4 -20
11 -17 16 3 5 12 7 20 3 8 -3 15 -3 15 0 0 3 -30 15 -67 28 -38 12 -80 28 -95
36 -16 7 -28 10 -28 5 0 -5 18 -15 40 -22 22 -7 45 -19 50 -25 15 -18 -108 12
-146 36 -17 10 -40 19 -50 19 -18 1 -18 1 0 15 17 13 17 15 4 15 -9 0 -20 -4
-23 -10 -8 -13 -27 -13 -60 0 -23 9 -24 12 -14 32 30 58 61 105 72 107 4 0 12
1 19 1 6 0 9 3 5 6 -3 4 0 13 8 20 11 12 26 9 98 -16 47 -17 104 -30 127 -30
80 0 148 47 136 94 -8 32 -33 49 -120 80 -38 14 -71 28 -74 31 -3 3 7 18 21
33 15 16 24 31 20 35 -3 4 -1 7 6 7 7 0 9 5 5 12 -4 6 -3 8 4 4 6 -3 32 16 59
43 46 48 72 59 80 35z m-166 -235 c72 -24 106 -53 88 -75 -6 -8 -26 -14 -43
-14 -44 0 -166 41 -166 56 0 13 38 54 50 54 3 0 35 -9 71 -21z m1289 -124 c11
-13 8 -15 -13 -15 -19 0 -25 4 -21 15 4 8 10 15 14 15 4 0 13 -7 20 -15z m166
-179 c41 -55 74 -107 74 -116 0 -10 -17 -35 -37 -57 -21 -22 -87 -97 -148
-166 -78 -92 -113 -126 -125 -121 -8 3 -44 16 -80 29 -267 95 -328 126 -290
150 8 5 7 11 -1 21 -14 17 -5 18 19 3 14 -9 39 -7 108 9 49 11 108 23 130 27
27 4 49 16 64 33 113 132 139 163 179 204 l45 48 -22 20 c-19 18 -27 19 -88
11 -86 -13 -93 -21 -16 -21 34 0 62 -3 62 -7 0 -16 -48 -63 -64 -63 -9 0 -16
-6 -16 -14 0 -8 -28 -50 -62 -94 -63 -81 -108 -112 -161 -112 -12 0 -52 -8
-88 -18 l-65 -18 0 22 c0 18 3 21 13 12 10 -8 12 -7 8 5 -4 8 -1 18 6 23 8 4
10 3 5 -4 -4 -7 -4 -12 1 -12 10 0 113 111 113 122 0 4 7 8 15 8 24 0 18 -28
-10 -46 -30 -20 -33 -44 -5 -44 20 0 28 7 97 83 21 23 45 38 68 43 20 4 34 11
32 18 -3 6 -8 10 -13 10 -5 -1 -36 -5 -68 -9 l-59 -7 62 75 c57 68 65 75 116
86 30 7 55 17 55 24 0 20 72 -57 146 -157z m1003 -200 c18 -19 22 -31 16 -53
-9 -39 -23 -53 -54 -53 -18 0 -35 -11 -53 -34 -28 -35 -124 -96 -150 -96 -16
0 -44 -27 -36 -35 2 -2 16 2 30 10 15 7 28 10 30 5 2 -4 32 -4 68 1 64 9 230
80 230 99 0 5 -7 13 -16 18 -13 7 -13 13 -3 35 l12 27 34 -37 c31 -34 60 -86
77 -136 5 -15 2 -17 -14 -12 -19 6 -20 2 -20 -67 0 -51 3 -68 10 -58 6 9 10
10 10 3 0 -6 -5 -15 -10 -18 -6 -4 -10 -12 -9 -18 3 -26 -2 -47 -11 -47 -5 0
-6 8 -3 18 12 30 -21 -3 -105 -107 -102 -127 -119 -140 -129 -101 -4 13 -25
26 -72 41 -36 12 -70 25 -76 30 -5 5 -21 9 -35 9 -14 0 -35 7 -46 15 -10 8
-31 15 -45 15 -22 0 -119 28 -119 34 0 13 55 108 77 132 53 60 73 84 73 90 0
12 31 35 40 29 6 -4 7 1 3 12 -3 10 -3 15 1 11 17 -15 124 95 219 224 34 45
45 47 76 14z m209 -351 c-4 -76 -28 -76 -28 0 0 43 3 55 15 55 13 0 15 -11 13
-55z m-2481 19 c-3 -3 -12 -4 -19 -1 -8 3 -5 6 6 6 11 1 17 -2 13 -5z m2487
-113 c3 -5 -1 -14 -9 -21 -13 -10 -15 -9 -15 9 0 21 14 28 24 12z m272 -208
c-10 -10 -19 5 -10 18 6 11 8 11 12 0 2 -7 1 -15 -2 -18z m-280 -178 c9 -24
-5 -36 -26 -23 -14 9 -16 16 -8 25 14 17 27 16 34 -2z"/>
<path d="M1006 2342 c-3 -5 1 -9 9 -9 8 0 15 4 15 9 0 4 -4 8 -9 8 -6 0 -12
-4 -15 -8z"/>
<path d="M1040 2329 c0 -5 5 -7 10 -4 6 3 10 8 10 11 0 2 -4 4 -10 4 -5 0 -10
-5 -10 -11z"/>
<path d="M4818 3673 c-31 -8 -19 -20 24 -26 45 -6 58 -2 42 12 -13 12 -46 19
-66 14z"/>
<path d="M2582 3603 c2 -13 14 -19 43 -21 l40 -2 -35 20 c-44 24 -52 25 -48 3z"/>
<path d="M2012 3555 c-25 -25 -42 -45 -36 -45 14 1 108 90 94 90 -6 0 -32 -20
-58 -45z"/>
<path d="M3495 3405 c-27 -25 -45 -45 -39 -45 12 0 30 14 68 58 41 45 30 40
-29 -13z"/>
<path d="M3507 3268 c-47 -51 -94 -103 -105 -116 -11 -12 -55 -61 -98 -109
-44 -47 -89 -100 -101 -116 -13 -17 -28 -34 -34 -38 -14 -8 29 -32 76 -43 17
-4 53 -22 80 -40 69 -45 334 -143 515 -190 52 -14 125 -36 163 -50 37 -14 76
-26 87 -26 11 0 20 -4 20 -8 0 -5 22 -19 50 -31 l50 -23 28 24 c16 13 42 42
58 65 16 24 32 43 37 43 4 0 7 6 7 13 0 6 14 27 30 46 17 18 30 38 30 43 0 5
5 6 10 3 10 -6 49 32 50 48 0 4 42 50 93 102 198 201 238 247 225 263 -11 13
-8 14 20 8 17 -4 32 -5 32 -2 0 10 -65 41 -90 43 -29 2 -131 31 -112 32 6 1
12 5 12 10 0 13 -129 31 -154 21 -23 -8 -99 -94 -91 -102 3 -2 -18 -5 -45 -7
-35 -1 -86 10 -172 37 -190 60 -179 60 -172 15 8 -53 -20 -87 -86 -103 -28 -7
-53 -10 -56 -7 -8 7 28 42 44 43 58 5 58 5 37 14 -11 4 -41 14 -67 20 -28 7
-48 18 -48 26 0 15 -80 55 -93 47 -12 -7 11 -30 38 -37 14 -4 25 -10 25 -15 0
-18 -32 -20 -61 -6 -26 14 -30 14 -35 1 -9 -24 5 -37 33 -30 23 6 25 4 19 -12
-6 -15 -5 -17 5 -6 17 16 29 15 29 -2 0 -15 -21 -26 -50 -26 -9 0 -22 -6 -29
-13 -15 -19 6 -37 44 -37 18 0 34 -3 38 -6 3 -3 33 -8 66 -10 49 -3 63 -1 67
11 4 8 15 15 26 15 15 0 19 -5 15 -20 -3 -10 0 -22 7 -25 8 -3 8 -7 -1 -11
-20 -9 -15 -24 6 -24 11 0 23 -4 26 -10 12 -19 34 -9 77 35 61 63 96 60 43 -3
-14 -17 -25 -34 -25 -39 0 -26 -40 -45 -82 -40 -24 3 -88 10 -143 16 -173 19
-239 49 -251 115 -3 20 3 34 24 55 25 25 27 31 15 47 -30 41 -9 94 44 115 13
5 21 13 18 19 -3 5 -2 10 4 10 5 0 11 -4 13 -9 2 -5 20 -6 42 -2 38 6 36 7
-70 44 -60 20 -112 37 -115 37 -3 0 -45 -42 -92 -92z m199 15 c-7 -7 -26 7
-26 19 0 6 6 6 15 -2 9 -7 13 -15 11 -17z m999 -114 c16 -16 -29 -9 -50 7 -19
15 -19 15 10 8 17 -3 34 -11 40 -15z"/>
<path d="M4738 3193 c7 -3 16 -2 19 1 4 3 -2 6 -13 5 -11 0 -14 -3 -6 -6z"/>
<path d="M3662 3087 c-12 -13 -22 -27 -22 -31 0 -10 59 36 59 47 2 14 -16 7
-37 -16z"/>
<path d="M4890 2928 c-14 -13 -26 -22 -27 -20 -9 8 -25 -3 -64 -42 -23 -25
-46 -43 -50 -40 -9 5 -17 -17 -11 -33 8 -24 39 -13 66 22 16 20 22 35 15 35
-25 0 6 18 36 22 25 2 31 -1 33 -19 4 -28 14 -29 33 -5 35 44 40 61 22 82 -22
25 -24 25 -53 -2z"/>
<path d="M4689 2724 c-7 -9 -22 -20 -33 -23 -19 -7 -19 -8 3 -14 16 -4 26 1
38 19 18 28 12 42 -8 18z"/>
<path d="M4623 2655 c-13 -13 -23 -27 -23 -30 0 -12 21 -4 40 15 20 20 27 41
13 39 -5 0 -18 -11 -30 -24z"/>
<path d="M4566 2584 c-9 -8 -16 -20 -16 -25 0 -11 49 22 50 34 0 12 -18 8 -34
-9z"/>
<path d="M4520 2525 c-7 -9 -11 -18 -8 -20 3 -3 11 1 18 10 7 9 11 18 8 20 -3
3 -11 -1 -18 -10z"/>
<path d="M5270 2280 c-9 -6 -10 -10 -3 -10 6 0 15 5 18 10 8 12 4 12 -15 0z"/>
<path d="M5226 2230 l-28 -31 26 12 c14 7 24 14 21 17 -3 3 0 11 6 19 21 25 4
13 -25 -17z"/>
<path d="M5186 2173 c-6 -14 -5 -15 5 -6 7 7 10 15 7 18 -3 3 -9 -2 -12 -12z"/>
<path d="M5163 2143 c-15 -5 -17 -23 -4 -23 5 0 11 7 15 15 3 8 4 15 3 14 -1
0 -8 -3 -14 -6z"/>
<path d="M5110 2085 c-6 -8 -10 -20 -7 -27 3 -8 6 -6 6 5 1 10 5 16 9 13 5 -3
9 1 9 9 0 19 -2 19 -17 0z"/>
<path d="M4896 1937 c-20 -23 -39 -52 -43 -65 -3 -15 -11 -21 -20 -18 -9 4
-13 1 -10 -6 2 -7 10 -12 16 -10 9 2 9 -3 2 -16 -12 -22 -41 -48 -41 -36 0 4
-7 -1 -15 -12 -15 -19 -15 -19 -9 1 5 17 2 16 -15 -5 -32 -39 -27 -52 14 -34
35 14 45 8 24 -13 -6 -6 -8 -16 -5 -21 10 -16 41 -6 40 12 -1 8 2 13 7 10 5
-3 9 2 9 11 0 25 37 69 44 53 3 -7 3 -2 0 11 -5 20 -3 23 10 18 10 -4 15 -3
12 2 -3 4 10 22 29 40 29 26 47 61 31 61 -2 0 -36 -39 -76 -86 -76 -90 -107
-110 -45 -28 21 27 32 50 27 52 -6 2 -8 10 -5 18 3 7 10 11 15 8 11 -7 73 49
90 80 10 18 8 17 -17 -2 -32 -25 -54 -29 -35 -7 7 9 11 18 8 20 -3 3 -21 -14
-42 -38z"/>
<path d="M4331 1604 c0 -11 3 -14 6 -6 3 7 2 16 -1 19 -3 4 -6 -2 -5 -13z"/>
<path d="M4320 1544 c0 -8 5 -12 10 -9 6 3 10 10 10 16 0 5 -4 9 -10 9 -5 0
-10 -7 -10 -16z"/>
<path d="M4619 1485 c-13 -19 -27 -35 -30 -35 -4 0 -25 -24 -48 -54 -27 -36
-39 -61 -35 -73 4 -12 3 -14 -3 -5 -10 13 -40 -21 -75 -83 -9 -16 -17 -26 -18
-21 0 4 -18 -18 -39 -50 -22 -32 -37 -63 -34 -68 3 -5 17 10 31 33 13 22 28
41 33 41 4 0 6 7 3 15 -5 11 -2 13 12 8 11 -4 15 -3 11 4 -4 6 0 17 9 24 8 7
24 30 35 51 11 21 24 36 29 33 9 -6 70 66 70 84 0 6 5 11 10 11 6 0 10 7 10
16 0 9 14 32 30 51 26 29 38 53 26 53 -2 0 -14 -16 -27 -35z"/>
<path d="M4329 1505 c-3 -6 -3 -21 1 -35 3 -14 8 -20 11 -15 3 6 3 21 -1 35
-3 14 -8 20 -11 15z"/>
<path d="M4572 1484 c-12 -8 -26 -13 -31 -10 -5 3 -17 -7 -26 -22 -10 -15 -12
-21 -4 -14 26 24 30 11 6 -20 -14 -18 -30 -44 -37 -58 -17 -33 55 45 75 83 9
15 19 27 24 27 5 0 11 7 15 15 7 19 6 19 -22 -1z"/>
<path d="M4321 1344 c0 -11 3 -14 6 -6 3 7 2 16 -1 19 -3 4 -6 -2 -5 -13z"/>
<path d="M4427 1298 c-29 -40 -40 -58 -33 -58 9 0 68 81 63 86 -3 3 -16 -10
-30 -28z"/>
<path d="M4324 1287 c-3 -13 -4 -41 -1 -63 4 -38 4 -38 5 8 1 26 7 50 12 53
13 8 13 25 0 25 -5 0 -12 -11 -16 -23z"/>
<path d="M4355 1210 c-3 -5 -1 -10 4 -10 6 0 11 5 11 10 0 6 -2 10 -4 10 -3 0
-8 -4 -11 -10z"/>
</g>
</svg>
